# xmcd CD database file
#
# Track frame offsets:
#	150
#	13203
#	25220
#	41350
#	55216
#	75452
#	92218
#	112114
#	132709
#	143556
#	165421
#
# Disc length: 2510 seconds
#
# Revision: 0
# Processed by: cddbd v1.5.1PL2 Copyright (c) Steve Scherf et al.
# Submitted via: CDex 1.51
#
DISCID=8d09cc0b
DTITLE=Otis Spann - Must Have Been The Devil
DYEAR=2003
DGENRE=Blues
TTITLE0=Goodmorning Blues
TTITLE1=Love, Love, Love
TTITLE2=Riverside Blues
TTITLE3=Must Have Been The Devil
TTITLE4=Jelly Roll Baker
TTITLE5=Trouble In Mind
TTITLE6=Worried Life Blues
TTITLE7=T.B. Blues
TTITLE8=Sann's Boogie
TTITLE9=Don't You Know
TTITLE10=Goin' Down Slow
EXTD=YEAR: 2003
EXTT0=
EXTT1=
EXTT2=
EXTT3=
EXTT4=
EXTT5=
EXTT6=
EXTT7=
EXTT8=
EXTT9=
EXTT10=
PLAYORDER=
